<svg xmlns="http://www.w3.org/2000/svg" width="138" height="41" viewBox="0 0 138 41" fill="none"><g id="logo"><g id="Tronix"><path d="M54.8029 33.3238V10.0004H58.7553V33.3238H54.8029ZM46.9668 12.9159V9.31445H66.5914V12.9159H46.9668Z" fill="white"></path><path d="M65.3396 33.3238V16.8602H69.1202V33.3238H65.3396ZM69.1202 24.1659L67.8142 23.5143C67.8142 21.4334 68.2724 19.7528 69.1889 18.4723C70.1283 17.1689 71.5375 16.5173 73.4163 16.5173C74.2411 16.5173 74.9858 16.6659 75.6503 16.9631C76.3147 17.2604 76.9334 17.7406 77.5062 18.4037L75.0316 20.9418C74.7338 20.6217 74.4015 20.393 74.0349 20.2558C73.6683 20.1186 73.2444 20.0501 72.7633 20.0501C71.7093 20.0501 70.8386 20.3816 70.1513 21.0447C69.4639 21.7078 69.1202 22.7482 69.1202 24.1659Z" fill="white"></path><path d="M85.7058 33.6668C84.1019 33.6668 82.647 33.2895 81.341 32.5349C80.035 31.7575 78.9925 30.7171 78.2134 29.4137C77.4573 28.1103 77.0793 26.6583 77.0793 25.0577C77.0793 23.4571 77.4573 22.0165 78.2134 20.736C78.9925 19.4555 80.035 18.438 81.341 17.6834C82.647 16.906 84.1019 16.5173 85.7058 16.5173C87.3326 16.5173 88.799 16.8945 90.105 17.6491C91.4111 18.4037 92.4421 19.4327 93.1982 20.736C93.9773 22.0165 94.3668 23.4571 94.3668 25.0577C94.3668 26.6583 93.9773 28.1103 93.1982 29.4137C92.4421 30.7171 91.4111 31.7575 90.105 32.5349C88.799 33.2895 87.3326 33.6668 85.7058 33.6668ZM85.7058 30.0311C86.6452 30.0311 87.4701 29.8253 88.1804 29.4137C88.9136 28.9792 89.4749 28.3847 89.8645 27.6301C90.2769 26.8756 90.4831 26.0181 90.4831 25.0577C90.4831 24.0973 90.2769 23.2513 89.8645 22.5196C89.452 21.7879 88.8907 21.2162 88.1804 20.8046C87.4701 20.3702 86.6452 20.1529 85.7058 20.1529C84.7893 20.1529 83.9645 20.3702 83.2313 20.8046C82.521 21.2162 81.9596 21.7879 81.5472 22.5196C81.1577 23.2513 80.9629 24.0973 80.9629 25.0577C80.9629 26.0181 81.1577 26.8756 81.5472 27.6301C81.9596 28.3847 82.521 28.9792 83.2313 29.4137C83.9645 29.8253 84.7893 30.0311 85.7058 30.0311Z" fill="white"></path><path d="M108.131 33.3238V23.8229C108.131 22.7254 107.776 21.8222 107.065 21.1133C106.378 20.4045 105.484 20.0501 104.384 20.0501C103.651 20.0501 102.998 20.2101 102.425 20.5302C101.853 20.8504 101.406 21.2963 101.085 21.8679C100.764 22.4396 100.604 23.0912 100.604 23.8229L99.126 22.9998C99.126 21.7421 99.401 20.6331 99.9509 19.6728C100.501 18.6895 101.257 17.9235 102.219 17.3747C103.204 16.8031 104.304 16.5173 105.519 16.5173C106.756 16.5173 107.856 16.8374 108.818 17.4776C109.78 18.095 110.537 18.9068 111.086 19.9129C111.636 20.8961 111.911 21.9251 111.911 22.9998V33.3238H108.131ZM96.8233 33.3238V16.8602H100.604V33.3238H96.8233Z" fill="white"></path><path d="M115.1 33.3238V16.8602H118.881L118.881 33.3238H115.1Z" fill="white"></path><path d="M132.882 33.3238L128.139 26.3611L127.451 25.7437L121.059 16.8602H125.63L129.857 22.9655L130.51 23.5486L137.418 33.3238H132.882ZM120.749 33.3238L127.417 24.0973L129.617 26.807L125.149 33.3238H120.749ZM130.854 25.6751L128.62 22.9998L132.744 16.8602H137.109L130.854 25.6751Z" fill="white"></path></g><g id="solution"><path d="M94.2951 13.3581C93.8277 13.3581 93.4262 13.2726 93.0907 13.1017C92.7607 12.9307 92.4609 12.6743 92.1914 12.3325L92.9339 11.5368C93.1044 11.7784 93.3024 11.9671 93.5279 12.1026C93.7534 12.2323 94.0284 12.2971 94.3529 12.2971C94.6444 12.2971 94.8754 12.2352 95.0459 12.1115C95.2219 11.9877 95.3099 11.8168 95.3099 11.5987C95.3099 11.4101 95.2604 11.2568 95.1614 11.1389C95.0624 11.021 94.9304 10.9208 94.7654 10.8383C94.6059 10.7558 94.4271 10.6821 94.2291 10.6173C94.0366 10.5466 93.8414 10.467 93.6434 10.3786C93.4509 10.2902 93.2722 10.1811 93.1072 10.0515C92.9477 9.91589 92.8184 9.74496 92.7194 9.53867C92.6204 9.32648 92.5709 9.06124 92.5709 8.74296C92.5709 8.36573 92.6562 8.0445 92.8267 7.77926C92.9972 7.51403 93.2309 7.31068 93.5279 7.16922C93.8249 7.02776 94.1604 6.95703 94.5344 6.95703C94.9304 6.95703 95.2879 7.0366 95.6069 7.19574C95.9259 7.35489 96.1871 7.56118 96.3906 7.81463L95.6481 8.61034C95.4776 8.40994 95.3016 8.26258 95.1201 8.16828C94.9441 8.07397 94.7434 8.02682 94.5179 8.02682C94.2594 8.02682 94.0559 8.07987 93.9074 8.18596C93.7589 8.29205 93.6847 8.4453 93.6847 8.6457C93.6847 8.81663 93.7342 8.95515 93.8332 9.06124C93.9321 9.16733 94.0614 9.25869 94.2209 9.33532C94.3859 9.41194 94.5646 9.48562 94.7571 9.55635C94.9551 9.62708 95.1504 9.70665 95.3429 9.79506C95.5409 9.88347 95.7196 9.99841 95.8791 10.1399C96.0441 10.2813 96.1761 10.464 96.2751 10.688C96.3741 10.9061 96.4236 11.1772 96.4236 11.5014C96.4236 12.079 96.2339 12.5329 95.8544 12.863C95.4749 13.193 94.9551 13.3581 94.2951 13.3581Z" fill="white"></path><path d="M100.732 13.3669C100.308 13.3669 99.9122 13.2844 99.5437 13.1194C99.1807 12.9543 98.8617 12.7274 98.5867 12.4386C98.3172 12.1439 98.1055 11.802 97.9515 11.413C97.7975 11.0181 97.7205 10.5967 97.7205 10.1487C97.7205 9.70075 97.7947 9.28522 97.9432 8.9021C98.0972 8.51309 98.309 8.17417 98.5785 7.88536C98.8535 7.59065 99.1725 7.36373 99.5355 7.20459C99.8985 7.03955 100.292 6.95703 100.715 6.95703C101.144 6.95703 101.54 7.03955 101.903 7.20459C102.266 7.36373 102.582 7.59065 102.852 7.88536C103.127 8.17417 103.341 8.51309 103.495 8.9021C103.649 9.29111 103.726 9.7096 103.726 10.1576C103.726 10.6055 103.649 11.024 103.495 11.413C103.341 11.802 103.127 12.1439 102.852 12.4386C102.582 12.7274 102.266 12.9543 101.903 13.1194C101.546 13.2844 101.155 13.3669 100.732 13.3669ZM100.715 12.2441C101.089 12.2441 101.414 12.1557 101.689 11.9788C101.964 11.802 102.178 11.5574 102.332 11.245C102.492 10.9326 102.571 10.5672 102.571 10.1487C102.571 9.84221 102.527 9.56224 102.439 9.30879C102.351 9.05535 102.225 8.83726 102.06 8.65454C101.895 8.46593 101.7 8.32153 101.474 8.22132C101.249 8.12112 100.996 8.07102 100.715 8.07102C100.352 8.07102 100.03 8.15944 99.75 8.33626C99.475 8.50719 99.2577 8.74885 99.0982 9.06124C98.9442 9.37363 98.8672 9.73612 98.8672 10.1487C98.8672 10.4611 98.9112 10.747 98.9992 11.0063C99.0927 11.2656 99.2192 11.4867 99.3787 11.6694C99.5437 11.8521 99.739 11.9936 99.9645 12.0938C100.195 12.194 100.446 12.2441 100.715 12.2441Z" fill="white"></path><path d="M105.276 13.2697V7.05428H106.398V13.2697H105.276ZM106.101 13.2697V12.1999H109.054V13.2697H106.101Z" fill="white"></path><path d="M112.604 13.3581C112.147 13.3581 111.74 13.252 111.383 13.0398C111.031 12.8217 110.753 12.524 110.55 12.1468C110.346 11.7696 110.244 11.3423 110.244 10.8648V7.05428H111.366V10.9002C111.366 11.1772 111.419 11.4159 111.523 11.6164C111.633 11.8168 111.782 11.9729 111.969 12.0849C112.161 12.191 112.373 12.2441 112.604 12.2441C112.84 12.2441 113.049 12.191 113.231 12.0849C113.412 11.9729 113.555 11.8168 113.66 11.6164C113.77 11.4159 113.825 11.1802 113.825 10.9091V7.05428H114.955V10.8737C114.955 11.3511 114.853 11.7784 114.65 12.1557C114.446 12.527 114.169 12.8217 113.817 13.0398C113.47 13.252 113.066 13.3581 112.604 13.3581Z" fill="white"></path><path d="M118.102 13.2697V7.1869H119.232V13.2697H118.102ZM116.254 8.12407V7.05428H121.08V8.12407H116.254Z" fill="white"></path><path d="M122.515 13.2697V7.05428H123.637V13.2697H122.515Z" fill="white"></path><path d="M128.202 13.3669C127.778 13.3669 127.382 13.2844 127.014 13.1194C126.651 12.9543 126.332 12.7274 126.057 12.4386C125.787 12.1439 125.575 11.802 125.421 11.413C125.267 11.0181 125.19 10.5967 125.19 10.1487C125.19 9.70075 125.265 9.28522 125.413 8.9021C125.567 8.51309 125.779 8.17417 126.048 7.88536C126.323 7.59065 126.642 7.36373 127.005 7.20459C127.368 7.03955 127.762 6.95703 128.185 6.95703C128.614 6.95703 129.01 7.03955 129.373 7.20459C129.736 7.36373 130.052 7.59065 130.322 7.88536C130.597 8.17417 130.811 8.51309 130.965 8.9021C131.119 9.29111 131.196 9.7096 131.196 10.1576C131.196 10.6055 131.119 11.024 130.965 11.413C130.811 11.802 130.597 12.1439 130.322 12.4386C130.052 12.7274 129.736 12.9543 129.373 13.1194C129.016 13.2844 128.625 13.3669 128.202 13.3669ZM128.185 12.2441C128.559 12.2441 128.884 12.1557 129.159 11.9788C129.434 11.802 129.648 11.5574 129.802 11.245C129.962 10.9326 130.041 10.5672 130.041 10.1487C130.041 9.84221 129.997 9.56224 129.909 9.30879C129.821 9.05535 129.695 8.83726 129.53 8.65454C129.365 8.46593 129.17 8.32153 128.944 8.22132C128.719 8.12112 128.466 8.07102 128.185 8.07102C127.822 8.07102 127.5 8.15944 127.22 8.33626C126.945 8.50719 126.728 8.74885 126.568 9.06124C126.414 9.37363 126.337 9.73612 126.337 10.1487C126.337 10.4611 126.381 10.747 126.469 11.0063C126.563 11.2656 126.689 11.4867 126.849 11.6694C127.014 11.8521 127.209 11.9936 127.434 12.0938C127.665 12.194 127.916 12.2441 128.185 12.2441Z" fill="white"></path><path d="M132.746 13.2697V7.05428H133.529L133.868 8.25669V13.2697H132.746ZM136.755 13.2697L133.315 8.4954L133.529 7.05428L136.97 11.8285L136.755 13.2697ZM136.755 13.2697L136.433 12.1026V7.05428H137.564V13.2697H136.755Z" fill="white"></path></g><g id="icon"><mask id="mask0_2315_1531" style="mask-type:luminance" maskUnits="userSpaceOnUse" x="0" y="0" width="37" height="41"><g id="SVGID_2_"><path id="Vector" d="M1.44188 20.0965L4.371 21.7848V28.9543L14.8451 34.9878L23.9135 29.76V38.4911L20.7124 36.6489L14.8496 40.03L14.0788 39.5864C11.6983 38.2195 3.46869 33.4805 0.376341 31.6882L0 31.4709V19.2682L1.44188 20.0965ZM25.8179 35.9157V32.5391L32.0389 28.9543L32.0343 16.8783L22.9659 11.655L30.5426 7.28723V10.9761L36.4053 14.3572V15.2443C36.4053 17.9872 36.4099 27.4697 36.4053 31.0409V31.4754L25.8179 37.5768V35.9157ZM18.5631 14.6062L21.057 16.0455L23.9135 17.6885V20.9791V23.0295L26.7157 24.6453C26.9288 24.5593 27.1646 24.5141 27.4094 24.5141C28.4432 24.5141 29.2775 25.3514 29.2775 26.3789C29.2775 27.4109 28.4387 28.2437 27.4094 28.2437C26.3756 28.2437 25.5413 27.4063 25.5413 26.3789C25.5413 26.139 25.5867 25.9082 25.6683 25.6999L26.489 26.1707L26.8472 25.5506L26.0537 25.0934L23.909 23.8578L22.2631 22.9073L18.5631 20.7754V14.6062ZM23.5508 24.4824L21.057 25.9217L18.2004 27.5693L15.3438 25.9217L12.85 24.4824L18.2004 21.4L23.5508 24.4824ZM12.4918 23.8578V20.9791V17.6885L15.3484 16.0455L17.1258 15.018V11.7863C16.9444 11.6415 16.7857 11.4649 16.6633 11.2522C16.1464 10.3605 16.4547 9.21994 17.348 8.70394C18.2412 8.18795 19.3838 8.49574 19.9007 9.38741C20.4176 10.2791 20.1093 11.4197 19.2161 11.9357C19.0075 12.0579 18.7853 12.1303 18.5586 12.1665V11.2251H17.8377V12.1394V14.6107V20.7754L12.4918 23.8578ZM9.68965 24.6499L12.4918 23.034V23.8578L11.1497 24.6318L10.3471 25.0934L9.55362 25.5506L9.91183 26.1707L10.7325 25.6999C10.8141 25.9127 10.8595 26.139 10.8595 26.3789C10.8595 27.4109 10.0206 28.2437 8.99138 28.2437C7.95757 28.2437 7.12327 27.4063 7.12327 26.3789C7.12327 25.3469 7.96211 24.5141 8.99138 24.5141C9.24076 24.5186 9.47201 24.5639 9.68965 24.6499ZM27.3505 6.93419L24.4214 8.62247L18.2004 5.0377L7.72633 11.0757V21.5268L0.154164 17.1589L3.3508 15.3168V8.5591L4.12161 8.11553C6.49755 6.74409 14.7226 1.99607 17.8241 0.217259L18.2004 0L28.7924 6.10136L27.3505 6.93419Z" fill="white"></path></g></mask><g mask="url(#mask0_2315_1531)"><path id="Vector_2" d="M36.4144 0H0V40.03H36.4144V0Z" fill="white"></path></g></g></g></svg>